<svg width="2006" height="479" viewBox="0 0 2006 479" fill="none" xmlns="http://www.w3.org/2000/svg">
<path d="M684.596 199C687.429 199 688.846 202.833 688.846 210.5C688.846 214.667 687.096 219.75 683.596 225.75C680.096 231.583 675.512 237 669.846 242C664.346 246.833 658.179 250.833 651.346 254C644.512 257.167 637.262 258.75 629.596 258.75C622.096 258.75 616.179 256.333 611.846 251.5C607.679 246.5 605.596 241 605.596 235C605.596 228.833 606.596 221.917 608.596 214.25C610.596 206.583 612.762 198.583 615.096 190.25C621.429 168.083 624.679 152.5 624.846 143.5C624.846 139.667 624.346 136.75 623.346 134.75C622.346 132.583 620.429 131.5 617.596 131.5C612.596 131.5 607.262 134.5 601.596 140.5C595.929 146.5 590.596 154.167 585.596 163.5C574.096 184.833 568.012 205.667 567.346 226C567.679 228.333 568.012 230.667 568.346 233C568.679 235.333 568.846 237.833 568.846 240.5C568.846 245.833 566.179 250.75 560.846 255.25C555.679 259.583 549.846 261.75 543.346 261.75C539.512 261.75 536.679 259.917 534.846 256.25C533.012 252.417 532.096 247.75 532.096 242.25C532.096 236.75 533.346 229.25 535.846 219.75C538.346 210.25 541.096 200.167 544.096 189.5C552.096 161.333 556.179 140.333 556.346 126.5C556.346 119.5 555.429 114 553.596 110C551.929 106 548.596 104 543.596 104C534.596 104 525.679 110.417 516.846 123.25C508.012 136.083 500.096 156 493.096 183C491.262 190 489.846 196.083 488.846 201.25L488.596 206C491.762 221.333 493.346 231.333 493.346 236C493.346 245.667 489.929 252.167 483.096 255.5C479.929 257 476.846 258.417 473.846 259.75C471.012 261.083 467.929 261.75 464.596 261.75C456.262 261.75 452.096 253.833 452.096 238C452.096 222 456.512 190.833 465.346 144.5C468.512 127.833 470.096 118.5 470.096 116.5C470.096 103 466.679 96.25 459.846 96.25C457.512 96.25 455.346 96.9167 453.346 98.25C451.512 99.5833 449.596 101 447.596 102.5C445.762 104 443.846 105.417 441.846 106.75C439.846 108.083 437.512 108.75 434.846 108.75C432.346 108.75 431.096 106.5 431.096 102C431.096 92.8333 435.346 85.3333 443.846 79.5C452.012 73.5 461.929 70.5 473.596 70.5C488.596 70.5 497.429 77.5 500.096 91.5C500.762 95.6667 501.262 100.083 501.596 104.75C513.929 81.5833 529.512 70 548.346 70C568.846 70 580.596 79.8333 583.596 99.5C584.596 105.167 585.012 111.25 584.846 117.75V119.75C595.679 104.75 608.512 97.25 623.346 97.25C644.346 97.25 654.846 109.917 654.846 135.25C654.846 146.25 653.096 159.167 649.596 174C646.262 188.667 643.762 199.25 642.096 205.75C640.596 212.083 639.846 217 639.846 220.5C639.846 226.833 642.012 230 646.346 230C650.846 230 661.429 221.333 678.096 204C681.096 200.667 683.262 199 684.596 199ZM712.889 216L714.389 246.5C714.389 250.5 712.305 254.083 708.139 257.25C703.972 260.417 698.305 262 691.139 262C686.972 262 684.055 259.833 682.389 255.5C680.889 251.167 680.139 244.833 680.139 236.5C680.139 219 680.972 205.333 682.639 195.5C684.472 185.5 687.972 175.417 693.139 165.25C685.472 157.917 681.639 151.583 681.639 146.25C681.639 135.083 687.639 129.5 699.639 129.5C705.805 129.5 711.222 132.75 715.889 139.25C719.222 143.75 721.639 149 723.139 155C725.472 155.833 728.389 156.25 731.889 156.25C736.722 156.25 742.305 154.667 748.639 151.5L755.139 148.25C757.139 147.25 758.889 146.75 760.389 146.75C765.222 146.75 770.055 153.833 774.889 168C773.389 174.5 771.722 180.75 769.889 186.75C768.222 192.75 766.222 200 763.889 208.5C761.555 217 760.305 222.75 760.139 225.75C760.139 228.583 761.055 230 762.889 230C765.389 230 768.472 228.417 772.139 225.25C775.805 222.083 779.472 218.667 783.139 215C786.805 211.167 790.139 207.667 793.139 204.5C796.305 201.333 798.472 199.75 799.639 199.75C801.972 199.75 803.139 202.583 803.139 208.25C803.139 219.75 798.055 231.083 787.889 242.25C777.889 253.417 766.389 258.917 753.389 258.75C745.722 258.75 739.972 255.667 736.139 249.5C732.305 243.333 730.305 235.833 730.139 227C730.139 209.5 734.055 192.917 741.889 177.25C738.222 178.75 734.055 179.5 729.389 179.5C724.889 179.5 721.639 179.333 719.639 179C718.139 185.333 716.639 191.75 715.139 198.25C713.639 204.583 712.889 210.5 712.889 216ZM928.912 205.25C928.912 219.75 935.079 227 947.412 227C960.912 227 969.995 222.333 974.662 213C976.329 209.667 977.162 205.417 977.162 200.25C977.162 194.917 975.912 190 973.412 185.5C969.245 178.333 962.079 170.417 951.912 161.75C935.079 147.417 926.662 132.583 926.662 117.25C926.662 101.75 931.495 89.8333 941.162 81.5C950.829 73.1667 961.912 69 974.412 69C986.912 69 996.829 72.1667 1004.16 78.5C1011.5 84.8333 1015.16 94.3333 1015.16 107C1015.16 115.333 1012.33 122.583 1006.66 128.75C1001.16 134.917 993.829 138.75 984.662 140.25C988.829 143.75 992.995 147.333 997.162 151C1001.16 154.667 1004.83 158.667 1008.16 163C1015.5 172.833 1019.16 184.583 1019.16 198.25C1019.16 207.75 1016.91 216.333 1012.41 224C1008.08 231.667 1002.33 238.167 995.162 243.5C988.162 248.667 980.245 252.667 971.412 255.5C962.579 258.333 954.329 259.75 946.662 259.75C930.329 259.75 917.662 256 908.662 248.5C898.162 240 892.912 227.75 892.912 211.75C892.912 201.25 896.329 191.083 903.162 181.25C909.995 171.417 917.245 166.5 924.912 166.5C930.912 166.5 933.912 168.333 933.912 172C933.912 177.333 933.079 182.667 931.412 188C929.745 193.167 928.912 198.917 928.912 205.25ZM977.412 134.25C986.912 124.75 991.662 114.833 991.662 104.5C991.662 101.333 989.995 98.6667 986.662 96.5C982.995 94.5 979.162 93.5 975.162 93.5C966.162 93.5 959.662 96.4167 955.662 102.25C957.662 109.417 960.579 115.5 964.412 120.5C968.412 125.5 972.745 130.083 977.412 134.25ZM1069.99 133.25C1075.99 133.25 1081.66 139 1086.99 150.5C1094.82 142.333 1104.49 138.25 1115.99 138.25C1127.66 138.25 1136.41 140.833 1142.24 146C1148.07 151 1150.99 158.167 1150.99 167.5C1150.99 176.667 1149.74 186 1147.24 195.5C1144.91 205 1143.16 211.833 1141.99 216C1140.99 220 1140.49 223.333 1140.49 226C1140.49 228.667 1141.41 230 1143.24 230C1145.74 230 1148.82 228.417 1152.49 225.25C1156.16 222.083 1159.82 218.667 1163.49 215C1167.16 211.167 1170.49 207.667 1173.49 204.5C1176.66 201.333 1178.82 199.75 1179.99 199.75C1182.32 199.75 1183.49 202.583 1183.49 208.25C1183.49 219.917 1177.74 231.167 1166.24 242C1146.91 253.333 1134.57 259 1129.24 259C1128.74 259 1128.41 258.917 1128.24 258.75C1114.91 258.75 1108.24 248.083 1108.24 226.75C1108.24 217.583 1109.07 209.167 1110.74 201.5C1112.57 193.833 1113.91 188.25 1114.74 184.75C1115.57 181.25 1115.99 177.667 1115.99 174C1115.99 168 1112.49 165 1105.49 165C1098.66 165 1092.07 170.167 1085.74 180.5C1079.57 190.667 1075.41 201.25 1073.24 212.25V214C1073.24 219.667 1074.07 225.5 1075.74 231.5C1077.57 237.5 1078.49 241.667 1078.49 244C1078.49 249.667 1071.41 255.25 1057.24 260.75C1055.07 261.583 1053.16 262 1051.49 262C1047.32 262 1044.41 259.833 1042.74 255.5C1041.24 251.167 1040.49 244.417 1040.49 235.25C1040.49 211.583 1041.41 194.5 1043.24 184C1045.74 168.333 1051.41 153.75 1060.24 140.25C1063.24 135.583 1066.49 133.25 1069.99 133.25ZM1272.02 236.75C1258.85 252.25 1243.02 260 1224.52 260C1206.18 260 1192.43 255.333 1183.27 246C1174.1 236.5 1169.6 224.75 1169.77 210.75C1169.6 190.917 1175.85 173.833 1188.52 159.5C1201.18 145.167 1217.77 138 1238.27 138C1247.6 138 1255.1 139.167 1260.77 141.5C1270.6 145.5 1275.52 149.25 1275.52 152.75C1275.52 155.417 1268.6 156.833 1254.77 157C1241.1 157 1229.6 161.75 1220.27 171.25C1211.1 180.583 1206.52 192.417 1206.52 206.75C1206.52 214.25 1208.68 220.583 1213.02 225.75C1217.52 230.75 1223.77 233.25 1231.77 233.25C1239.93 233.25 1246.68 231.583 1252.02 228.25C1240.18 220.25 1234.27 208.667 1234.27 193.5C1234.1 185.5 1236.93 178.25 1242.77 171.75C1248.77 165.083 1256.35 161.75 1265.52 161.75C1274.85 161.583 1281.52 164.083 1285.52 169.25C1289.52 174.417 1291.52 181.083 1291.52 189.25C1291.52 197.25 1289.6 205.75 1285.77 214.75H1287.27C1294.6 214.583 1300.93 212 1306.27 207C1308.27 205 1309.93 203.25 1311.27 201.75C1312.77 200.25 1314.27 199.5 1315.77 199.5C1318.1 199.5 1319.27 202.25 1319.27 207.75C1319.27 217.917 1316.27 225.583 1310.27 230.75C1304.27 235.75 1297.6 238.25 1290.27 238.25C1283.1 238.25 1277.02 237.75 1272.02 236.75ZM1269.77 207.75C1272.6 201.75 1274.02 195.917 1274.02 190.25C1274.02 184.583 1272.18 181.75 1268.52 181.75C1267.02 181.75 1265.77 182.833 1264.77 185C1263.77 187.167 1263.27 189.25 1263.27 191.25C1263.27 197.917 1265.43 203.417 1269.77 207.75ZM1346.26 148C1346.26 159.167 1344.26 171.833 1340.26 186C1340.59 191.333 1340.76 196.5 1340.76 201.5C1341.09 212.167 1342.43 219.5 1344.76 223.5C1346.43 225.667 1348.59 226.75 1351.26 226.75C1356.43 226.75 1362.84 223.083 1370.51 215.75C1364.68 201.917 1361.76 189.417 1361.76 178.25C1361.76 155.417 1372.51 144 1394.01 144C1401.34 144 1407.43 146.167 1412.26 150.5C1417.26 154.667 1419.76 159.917 1419.76 166.25C1419.76 179.583 1412.34 195.583 1397.51 214.25C1403.68 221.583 1408.68 225.833 1412.51 227C1418.01 227 1426.26 216.833 1437.26 196.5C1435.26 189 1434.26 182 1434.26 175.5C1434.26 163.667 1436.09 155 1439.76 149.5C1444.26 142.5 1451.68 139 1462.01 139C1472.51 139 1478.43 143.25 1479.76 151.75C1480.09 154.25 1480.26 156.917 1480.26 159.75C1480.26 170.417 1474.34 185.167 1462.51 204C1466.68 210 1470.59 213.583 1474.26 214.75C1481.93 214.75 1488.43 212.167 1493.76 207C1495.76 205.167 1497.43 203.5 1498.76 202C1500.26 200.333 1501.76 199.5 1503.26 199.5C1505.59 199.5 1506.76 202.25 1506.76 207.75C1506.76 217.917 1503.76 225.417 1497.76 230.25C1491.76 235.083 1483.93 237.5 1474.26 237.5C1464.59 237.5 1456.18 232.833 1449.01 223.5C1440.34 234.833 1433.18 242.75 1427.51 247.25C1417.18 255.75 1409.09 260 1403.26 260C1400.43 260 1396.76 257.667 1392.26 253C1387.93 248.167 1383.59 241.917 1379.26 234.25C1371.26 241.75 1363.34 247.917 1355.51 252.75C1347.68 257.583 1341.09 260 1335.76 260C1326.09 260 1317.93 239 1311.26 197C1308.93 182.667 1307.76 172.833 1307.76 167.5C1308.09 156.5 1309.59 148.833 1312.26 144.5C1315.93 139.167 1323.09 136.5 1333.76 136.5C1337.76 136.5 1340.84 137.75 1343.01 140.25C1345.18 142.583 1346.26 145.167 1346.26 148ZM1389.01 193C1394.51 184.5 1397.26 177.75 1397.26 172.75C1397.26 167.583 1395.51 165 1392.01 165C1389.68 165 1388.18 166.333 1387.51 169C1387.01 171.5 1386.76 174.833 1386.76 179C1386.76 183.167 1387.51 187.833 1389.01 193ZM1632.48 182C1632.48 176.5 1629.31 173.75 1622.98 173.75C1618.65 173.75 1613.81 178 1608.48 186.5C1603.15 194.833 1599.31 203.833 1596.98 213.5V214C1596.98 219.667 1597.81 225.5 1599.48 231.5C1601.31 237.5 1602.23 241.667 1602.23 244C1602.23 249.667 1595.15 255.25 1580.98 260.75C1578.81 261.583 1576.9 262 1575.23 262C1571.06 262 1568.15 259.833 1566.48 255.5C1564.98 251.167 1564.23 245.333 1564.23 238C1564.23 230.5 1564.4 223.5 1564.73 217C1565.23 210.333 1565.65 204.25 1565.98 198.75C1566.48 193.083 1566.9 188.167 1567.23 184C1567.73 179.667 1567.98 176.167 1567.98 173.5C1567.98 167.833 1565.4 165 1560.23 165C1555.06 165 1549.06 171.083 1542.23 183.25C1535.4 195.25 1531.98 204.833 1531.98 212C1531.98 219 1532.81 225.5 1534.48 231.5C1536.31 237.5 1537.23 241.667 1537.23 244C1537.23 249.667 1530.15 255.25 1515.98 260.75C1513.81 261.583 1511.9 262 1510.23 262C1506.06 262 1503.15 259.833 1501.48 255.5C1499.98 251.167 1499.23 244.5 1499.23 235.5C1499.23 211.833 1500.15 194.75 1501.98 184.25C1504.48 168.75 1510.15 154.083 1518.98 140.25C1521.98 135.583 1525.23 133.25 1528.73 133.25C1534.23 133.25 1539.31 137.75 1543.98 146.75C1545.31 149.083 1546.31 151.25 1546.98 153.25C1554.98 143.25 1564.4 138.25 1575.23 138.25C1582.4 138.25 1588.81 140.667 1594.48 145.5C1600.15 150.167 1602.98 156.083 1602.98 163.25V166C1613.15 153.333 1625.56 147 1640.23 147C1649.23 147 1656.06 149.333 1660.73 154C1665.4 158.667 1667.73 164.417 1667.73 171.25C1667.73 178.083 1667.23 184.25 1666.23 189.75C1665.23 195.25 1664.06 200.417 1662.73 205.25C1661.56 210.083 1660.48 214.417 1659.48 218.25C1658.48 221.917 1657.98 224.833 1657.98 227C1657.98 229 1658.65 230 1659.98 230C1662.48 230 1665.56 228.417 1669.23 225.25C1672.9 222.083 1676.56 218.667 1680.23 215C1683.9 211.167 1687.23 207.667 1690.23 204.5C1693.4 201.333 1695.56 199.75 1696.73 199.75C1699.06 199.75 1700.23 202.583 1700.23 208.25C1700.23 219.917 1694.31 231.25 1682.48 242.25C1670.81 253.25 1658.31 258.75 1644.98 258.75C1632.98 258.75 1626.98 247.833 1626.98 226C1626.98 220.5 1627.9 212.917 1629.73 203.25C1631.56 193.583 1632.48 186.5 1632.48 182ZM1841.12 199C1844.12 199 1845.62 202.833 1845.62 210.5C1845.62 214.667 1843.87 219.75 1840.37 225.75C1836.87 231.583 1832.29 237 1826.62 242C1821.12 246.833 1814.95 250.833 1808.12 254C1801.29 257.167 1794.62 258.75 1788.12 258.75C1779.29 258.75 1773.37 251 1770.37 235.5C1766.04 242.667 1760.37 248.583 1753.37 253.25C1746.37 257.75 1736.95 260 1725.12 260C1713.45 260 1704.04 256.333 1696.87 249C1689.7 241.667 1686.2 232.75 1686.37 222.25C1686.37 193.917 1695.79 171.583 1714.62 155.25C1722.62 148.417 1730.04 143.917 1736.87 141.75C1743.87 139.583 1751.2 138.5 1758.87 138.5C1766.54 138.5 1772.79 139.833 1777.62 142.5C1779.95 137.667 1782.62 135.25 1785.62 135.25C1791.45 135.25 1796.95 137.833 1802.12 143C1807.45 148 1810.12 152.75 1810.12 157.25C1807.79 162.75 1804.37 169.333 1799.87 177C1798.54 184.667 1797.87 195.417 1797.87 209.25C1797.87 223.083 1799.62 230 1803.12 230C1807.45 230 1817.95 221.333 1834.62 204C1837.62 200.667 1839.79 199 1841.12 199ZM1723.12 214C1723.12 226.833 1727.87 233.25 1737.37 233.25C1747.54 233.083 1755.95 227.667 1762.62 217C1764.95 213.333 1766.87 208.833 1768.37 203.5C1768.37 184.833 1770.04 168.833 1773.37 155.5C1759.87 158.167 1748.12 164.667 1738.12 175C1728.12 185.333 1723.12 198.333 1723.12 214ZM1866.38 133.25C1872.38 133.25 1878.04 139 1883.38 150.5C1891.21 142.333 1900.88 138.25 1912.38 138.25C1924.04 138.25 1932.79 140.833 1938.63 146C1944.46 151 1947.38 158.167 1947.38 167.5C1947.38 176.667 1946.13 186 1943.63 195.5C1941.29 205 1939.54 211.833 1938.38 216C1937.38 220 1936.88 223.333 1936.88 226C1936.88 228.667 1937.79 230 1939.63 230C1942.13 230 1945.21 228.417 1948.88 225.25C1952.54 222.083 1956.21 218.667 1959.88 215C1963.54 211.167 1966.88 207.667 1969.88 204.5C1973.04 201.333 1975.21 199.75 1976.38 199.75C1978.71 199.75 1979.88 202.583 1979.88 208.25C1979.88 219.917 1974.13 231.167 1962.63 242C1943.29 253.333 1930.96 259 1925.63 259C1925.13 259 1924.79 258.917 1924.63 258.75C1911.29 258.75 1904.63 248.083 1904.63 226.75C1904.63 217.583 1905.46 209.167 1907.13 201.5C1908.96 193.833 1910.29 188.25 1911.13 184.75C1911.96 181.25 1912.38 177.667 1912.38 174C1912.38 168 1908.88 165 1901.88 165C1895.04 165 1888.46 170.167 1882.13 180.5C1875.96 190.667 1871.79 201.25 1869.63 212.25V214C1869.63 219.667 1870.46 225.5 1872.13 231.5C1873.96 237.5 1874.88 241.667 1874.88 244C1874.88 249.667 1867.79 255.25 1853.63 260.75C1851.46 261.583 1849.54 262 1847.88 262C1843.71 262 1840.79 259.833 1839.13 255.5C1837.63 251.167 1836.88 244.417 1836.88 235.25C1836.88 211.583 1837.79 194.5 1839.63 184C1842.13 168.333 1847.79 153.75 1856.63 140.25C1859.63 135.583 1862.88 133.25 1866.38 133.25Z" fill="white"/>
<path d="M810.646 248.5C813.98 240 818.98 233 825.646 227.5C832.313 221.833 839.563 219 847.396 219C855.23 219 859.146 223.333 859.146 232C859.146 240.667 856.313 248.417 850.646 255.25C845.146 262.083 839.563 265.417 833.896 265.25C823.896 265.25 816.146 259.667 810.646 248.5Z" fill="#E5A0BD"/>
<path d="M13.7337 266.133H14.7194C18.8091 286.138 39.548 349.328 137.867 356.815V396.8H98.667C84.235 396.8 72.5337 408.501 72.5337 422.933V429.467C72.5337 433.075 75.459 436 79.067 436H235.867C239.475 436 242.4 433.075 242.4 429.467V422.933C242.4 408.501 230.699 396.8 216.267 396.8H177.067V356.815C275.373 349.328 296.125 286.138 300.215 266.133H301.2C308.416 266.133 314.267 260.283 314.267 253.067V240C314.267 232.784 308.416 226.933 301.2 226.933H300.065C306.566 189.274 284.822 152.451 248.704 139.955C248.777 138.459 248.934 136.976 248.934 135.467C248.934 84.9514 207.982 44 157.467 44C106.952 44 66.0003 84.9514 66.0003 135.467C66.0003 136.956 66.163 138.453 66.2428 139.955C30.118 152.441 8.3679 189.268 14.8693 226.933H13.7337C6.51764 226.933 0.666992 232.784 0.666992 240V253.067C0.666992 260.283 6.51764 266.133 13.7337 266.133ZM216.267 409.867C223.483 409.867 229.334 415.717 229.334 422.933H85.6003C85.6003 415.717 91.451 409.867 98.667 409.867H144.4C148.008 409.867 150.934 406.941 150.934 403.333V357.45C153.109 357.501 155.228 357.6 157.467 357.6C159.706 357.6 161.825 357.501 164 357.45V403.333C164 406.941 166.926 409.867 170.534 409.867H216.267ZM157.467 344.533C54.4107 344.533 32.466 286.681 27.9232 266.133H287.011C282.468 286.681 260.523 344.533 157.467 344.533ZM288.134 213.867C288.137 218.256 287.697 222.633 286.826 226.933H158.775C153.818 202.532 163.165 177.436 182.873 162.219C202.581 147.002 229.225 144.31 251.578 155.28C273.931 166.248 288.108 188.968 288.134 213.867ZM157.467 57.0667C200.747 57.1145 235.819 92.1865 235.867 135.467C235.867 135.859 235.816 136.245 235.81 136.637C231.512 135.885 227.161 135.492 222.8 135.467C222.762 99.3993 193.534 70.1716 157.467 70.1333C153.859 70.1333 150.934 73.0587 150.934 76.6667C150.934 80.2747 153.859 83.2 157.467 83.2C186.318 83.2319 209.702 106.615 209.734 135.467C209.772 135.853 209.848 136.235 209.963 136.609C188.513 140.175 169.503 152.479 157.467 170.59C140.492 144.613 109.67 131.249 79.1053 136.615C79.1053 136.232 79.0479 135.84 79.0479 135.448C79.1053 92.1674 114.187 57.1018 157.467 57.0667ZM92.1337 148.533C116.672 148.616 139.102 162.413 150.241 184.278C144.671 197.766 143.041 212.556 145.536 226.933H28.1083C24.2068 207.713 29.1387 187.752 41.545 172.561C53.9513 157.37 72.5209 148.552 92.1337 148.533ZM13.7337 240H301.2V253.067H13.7337V240Z" fill="#FFC452"/>
<path d="M52.2095 289.47C56.7618 295.962 62.2456 301.746 68.4822 306.643C71.315 308.879 75.4239 308.397 77.6634 305.564C79.8996 302.732 79.4179 298.623 76.5851 296.383C71.3501 292.287 66.7468 287.445 62.9219 282.012C60.8292 279.138 56.8224 278.464 53.9035 280.5C50.9877 282.532 50.2348 286.526 52.2095 289.486V289.47Z" fill="#FFC452"/>
<path d="M96.3994 321.966C116.044 328.684 136.713 331.9 157.468 331.466C220.265 331.466 249.39 308.631 262.773 289.468C264.748 286.511 263.992 282.517 261.076 280.485C258.16 278.45 254.15 279.12 252.057 281.997C240.442 298.605 214.641 318.399 157.468 318.399C138.26 318.83 119.126 315.892 100.936 309.71C97.551 308.459 93.7899 310.188 92.5394 313.573C91.2856 316.954 93.0147 320.715 96.3994 321.966Z" fill="#FFC452"/>
<path d="M216.267 168.131C216.267 171.739 219.192 174.664 222.8 174.664C242.257 174.735 258.743 189.01 261.595 208.259C262.109 211.832 265.42 214.314 268.993 213.804C272.569 213.29 275.051 209.979 274.538 206.403C270.729 180.738 248.746 161.7 222.8 161.598C219.192 161.598 216.267 164.523 216.267 168.131Z" fill="#FFC452"/>
<path d="M92.5958 174.664C112.055 174.738 128.542 189.013 131.397 208.259C131.86 211.475 134.616 213.864 137.867 213.864C138.182 213.864 138.495 213.842 138.808 213.801C142.377 213.284 144.853 209.972 144.343 206.403C140.53 180.735 118.547 161.697 92.5958 161.598C88.9878 161.598 86.0625 164.523 86.0625 168.131C86.0625 171.739 88.9878 174.664 92.5958 174.664Z" fill="#FFC452"/>
<path d="M294.667 338.002C294.667 334.394 291.742 331.469 288.134 331.469C284.526 331.469 281.6 334.394 281.6 338.002C281.6 352.434 269.899 364.135 255.467 364.135C251.859 364.135 248.934 367.061 248.934 370.669C248.934 374.277 251.859 377.202 255.467 377.202C269.899 377.202 281.6 388.903 281.6 403.335C281.6 406.943 284.526 409.869 288.134 409.869C291.742 409.869 294.667 406.943 294.667 403.335C294.667 388.903 306.368 377.202 320.8 377.202C324.408 377.202 327.334 374.277 327.334 370.669C327.334 367.061 324.408 364.135 320.8 364.135C306.368 364.135 294.667 352.434 294.667 338.002ZM288.134 381.71C285.224 377.333 281.469 373.578 277.093 370.669C281.469 367.759 285.224 364.005 288.134 359.628C291.043 364.005 294.798 367.759 299.175 370.669C294.798 373.578 291.043 377.333 288.134 381.71Z" fill="#E5A0BD"/>
<path d="M471.5 436V380.4H452.6V370.6H502V380.4H483.1V436H471.5ZM528.89 436V370.6H540.49V396.9H566.99V370.6H578.59V436H566.99V407H540.49V436H528.89ZM611.198 436V370.6H650.598V380.4H622.798V397.1H646.298V406.9H622.798V426.2H651.598V436H611.198ZM717.027 436V370.6H737.927C742.46 370.6 746.46 371.1 749.927 372.1C753.46 373.1 756.227 374.8 758.227 377.2C760.293 379.533 761.327 382.7 761.327 386.7C761.327 389.767 760.527 392.667 758.927 395.4C757.327 398.067 755.093 399.9 752.227 400.9V401.3C755.827 402.1 758.793 403.8 761.127 406.4C763.527 408.933 764.727 412.4 764.727 416.8C764.727 421.133 763.627 424.733 761.427 427.6C759.293 430.467 756.327 432.6 752.527 434C748.727 435.333 744.427 436 739.627 436H717.027ZM728.627 397.6H736.927C741.46 397.6 744.76 396.767 746.827 395.1C748.893 393.433 749.927 391.2 749.927 388.4C749.927 385.2 748.86 382.933 746.727 381.6C744.593 380.267 741.393 379.6 737.127 379.6H728.627V397.6ZM728.627 427H738.427C743.227 427 746.927 426.133 749.527 424.4C752.127 422.6 753.427 419.867 753.427 416.2C753.427 412.733 752.16 410.233 749.627 408.7C747.093 407.1 743.36 406.3 738.427 406.3H728.627V427ZM792.695 436V370.6H832.095V380.4H804.295V397.1H827.795V406.9H804.295V426.2H833.095V436H792.695ZM881.603 437.2C877.203 437.2 872.936 436.367 868.803 434.7C864.736 433.033 861.136 430.667 858.003 427.6L864.803 419.7C867.136 421.9 869.803 423.7 872.803 425.1C875.803 426.433 878.803 427.1 881.803 427.1C885.536 427.1 888.37 426.333 890.303 424.8C892.236 423.267 893.203 421.233 893.203 418.7C893.203 415.967 892.236 414 890.303 412.8C888.436 411.6 886.036 410.367 883.103 409.1L874.103 405.2C871.97 404.267 869.87 403.067 867.803 401.6C865.803 400.133 864.136 398.267 862.803 396C861.536 393.733 860.903 391 860.903 387.8C860.903 384.333 861.836 381.233 863.703 378.5C865.636 375.7 868.236 373.5 871.503 371.9C874.836 370.233 878.636 369.4 882.903 369.4C886.703 369.4 890.37 370.167 893.903 371.7C897.436 373.167 900.47 375.167 903.003 377.7L897.103 385.1C895.036 383.367 892.836 382 890.503 381C888.236 380 885.703 379.5 882.903 379.5C879.836 379.5 877.336 380.2 875.403 381.6C873.536 382.933 872.603 384.8 872.603 387.2C872.603 388.867 873.07 390.267 874.003 391.4C875.003 392.467 876.303 393.4 877.903 394.2C879.503 394.933 881.203 395.667 883.003 396.4L891.903 400.1C895.77 401.767 898.936 403.967 901.403 406.7C903.87 409.367 905.103 413.067 905.103 417.8C905.103 421.333 904.17 424.567 902.303 427.5C900.436 430.433 897.736 432.8 894.203 434.6C890.736 436.333 886.536 437.2 881.603 437.2ZM944.242 436V380.4H925.342V370.6H974.742V380.4H955.842V436H944.242ZM1037.65 436V370.6H1049.25V436H1037.65ZM1107.97 437.2C1102.51 437.2 1097.54 435.9 1093.07 433.3C1088.61 430.7 1085.04 426.9 1082.37 421.9C1079.77 416.833 1078.47 410.7 1078.47 403.5C1078.47 396.367 1079.81 390.267 1082.47 385.2C1085.21 380.067 1088.84 376.167 1093.37 373.5C1097.91 370.767 1102.91 369.4 1108.37 369.4C1112.51 369.4 1116.17 370.233 1119.37 371.9C1122.57 373.567 1125.21 375.5 1127.27 377.7L1121.07 385.2C1119.41 383.467 1117.54 382.1 1115.47 381.1C1113.47 380.033 1111.21 379.5 1108.67 379.5C1105.14 379.5 1101.97 380.467 1099.17 382.4C1096.44 384.267 1094.27 386.967 1092.67 390.5C1091.14 394.033 1090.37 398.267 1090.37 403.2C1090.37 410.667 1092.01 416.533 1095.27 420.8C1098.54 425 1102.91 427.1 1108.37 427.1C1111.31 427.1 1113.91 426.5 1116.17 425.3C1118.44 424.033 1120.51 422.4 1122.37 420.4L1128.57 427.7C1125.91 430.767 1122.84 433.133 1119.37 434.8C1115.97 436.4 1112.17 437.2 1107.97 437.2ZM1155.49 436V370.6H1194.89V380.4H1167.09V397.1H1190.59V406.9H1167.09V426.2H1195.89V436H1155.49ZM1287.42 437.2C1281.95 437.2 1276.99 435.9 1272.52 433.3C1268.05 430.7 1264.49 426.9 1261.82 421.9C1259.22 416.833 1257.92 410.7 1257.92 403.5C1257.92 396.367 1259.25 390.267 1261.92 385.2C1264.65 380.067 1268.29 376.167 1272.82 373.5C1277.35 370.767 1282.35 369.4 1287.82 369.4C1291.95 369.4 1295.62 370.233 1298.82 371.9C1302.02 373.567 1304.65 375.5 1306.72 377.7L1300.52 385.2C1298.85 383.467 1296.99 382.1 1294.92 381.1C1292.92 380.033 1290.65 379.5 1288.12 379.5C1284.59 379.5 1281.42 380.467 1278.62 382.4C1275.89 384.267 1273.72 386.967 1272.12 390.5C1270.59 394.033 1269.82 398.267 1269.82 403.2C1269.82 410.667 1271.45 416.533 1274.72 420.8C1277.99 425 1282.35 427.1 1287.82 427.1C1290.75 427.1 1293.35 426.5 1295.62 425.3C1297.89 424.033 1299.95 422.4 1301.82 420.4L1308.02 427.7C1305.35 430.767 1302.29 433.133 1298.82 434.8C1295.42 436.4 1291.62 437.2 1287.42 437.2ZM1334.94 436V370.6H1357.04C1361.57 370.6 1365.64 371.2 1369.24 372.4C1372.9 373.6 1375.77 375.633 1377.84 378.5C1379.97 381.3 1381.04 385.133 1381.04 390C1381.04 395 1379.84 399.033 1377.44 402.1C1375.1 405.167 1371.97 407.367 1368.04 408.7L1383.64 436H1370.64L1356.54 410.4H1346.54V436H1334.94ZM1346.54 401.2H1355.84C1360.3 401.2 1363.7 400.267 1366.04 398.4C1368.44 396.467 1369.64 393.667 1369.64 390C1369.64 386.267 1368.44 383.667 1366.04 382.2C1363.7 380.667 1360.3 379.9 1355.84 379.9H1346.54V401.2ZM1410.12 436V370.6H1449.52V380.4H1421.72V397.1H1445.22V406.9H1421.72V426.2H1450.52V436H1410.12ZM1493.33 401.2L1491.03 409.2H1507.73L1505.43 401.2C1504.36 397.733 1503.33 394.167 1502.33 390.5C1501.39 386.833 1500.46 383.2 1499.53 379.6H1499.13C1498.26 383.267 1497.33 386.933 1496.33 390.6C1495.39 394.2 1494.39 397.733 1493.33 401.2ZM1471.42 436L1492.73 370.6H1506.33L1527.63 436H1515.43L1510.33 418.3H1488.33L1483.23 436H1471.42ZM1551.69 436V370.6H1564.79L1576.39 402.6C1577.12 404.667 1577.82 406.8 1578.49 409C1579.22 411.133 1579.92 413.267 1580.59 415.4H1580.99C1581.72 413.267 1582.42 411.133 1583.09 409C1583.75 406.8 1584.42 404.667 1585.09 402.6L1596.39 370.6H1609.59V436H1598.89V406.1C1598.89 404.033 1598.95 401.8 1599.09 399.4C1599.29 396.933 1599.49 394.467 1599.69 392C1599.95 389.533 1600.19 387.3 1600.39 385.3H1599.99L1594.69 400.5L1583.99 429.9H1577.09L1566.29 400.5L1561.09 385.3H1560.69C1560.89 387.3 1561.09 389.533 1561.29 392C1561.55 394.467 1561.75 396.933 1561.89 399.4C1562.09 401.8 1562.19 404.033 1562.19 406.1V436H1551.69ZM1678.22 436V370.6H1689.82V436H1678.22ZM1722.44 436V370.6H1734.34L1754.74 407.4L1761.44 421.3H1761.84C1761.57 417.967 1761.24 414.333 1760.84 410.4C1760.51 406.467 1760.34 402.667 1760.34 399V370.6H1771.44V436H1759.54L1739.14 399.2L1732.44 385.3H1732.04C1732.31 388.767 1732.61 392.4 1732.94 396.2C1733.34 400 1733.54 403.733 1733.54 407.4V436H1722.44ZM1840.09 436V370.6H1851.99L1872.39 407.4L1879.09 421.3H1879.49C1879.22 417.967 1878.89 414.333 1878.49 410.4C1878.15 406.467 1877.99 402.667 1877.99 399V370.6H1889.09V436H1877.19L1856.79 399.2L1850.09 385.3H1849.69C1849.95 388.767 1850.25 392.4 1850.59 396.2C1850.99 400 1851.19 403.733 1851.19 407.4V436H1840.09ZM1932.61 436V411.7L1913.01 370.6H1925.41L1932.51 387.3C1933.44 389.767 1934.38 392.167 1935.31 394.5C1936.24 396.767 1937.24 399.167 1938.31 401.7H1938.71C1939.78 399.167 1940.81 396.767 1941.81 394.5C1942.81 392.167 1943.78 389.767 1944.71 387.3L1951.81 370.6H1963.91L1944.21 411.7V436H1932.61Z" fill="white" fill-opacity="0.61"/>
</svg>
