<svg width="1561" height="764" viewBox="0 0 1561 764" fill="none" xmlns="http://www.w3.org/2000/svg">
<path d="M265.596 679C268.429 679 269.846 682.833 269.846 690.5C269.846 694.667 268.096 699.75 264.596 705.75C261.096 711.583 256.512 717 250.846 722C245.346 726.833 239.179 730.833 232.346 734C225.512 737.167 218.262 738.75 210.596 738.75C203.096 738.75 197.179 736.333 192.846 731.5C188.679 726.5 186.596 721 186.596 715C186.596 708.833 187.596 701.917 189.596 694.25C191.596 686.583 193.762 678.583 196.096 670.25C202.429 648.083 205.679 632.5 205.846 623.5C205.846 619.667 205.346 616.75 204.346 614.75C203.346 612.583 201.429 611.5 198.596 611.5C193.596 611.5 188.262 614.5 182.596 620.5C176.929 626.5 171.596 634.167 166.596 643.5C155.096 664.833 149.012 685.667 148.346 706C148.679 708.333 149.012 710.667 149.346 713C149.679 715.333 149.846 717.833 149.846 720.5C149.846 725.833 147.179 730.75 141.846 735.25C136.679 739.583 130.846 741.75 124.346 741.75C120.512 741.75 117.679 739.917 115.846 736.25C114.012 732.417 113.096 727.75 113.096 722.25C113.096 716.75 114.346 709.25 116.846 699.75C119.346 690.25 122.096 680.167 125.096 669.5C133.096 641.333 137.179 620.333 137.346 606.5C137.346 599.5 136.429 594 134.596 590C132.929 586 129.596 584 124.596 584C115.596 584 106.679 590.417 97.8457 603.25C89.0124 616.083 81.0957 636 74.0957 663C72.2624 670 70.8457 676.083 69.8457 681.25L69.5957 686C72.7624 701.333 74.3457 711.333 74.3457 716C74.3457 725.667 70.929 732.167 64.0957 735.5C60.929 737 57.8457 738.417 54.8457 739.75C52.0124 741.083 48.929 741.75 45.5957 741.75C37.2624 741.75 33.0957 733.833 33.0957 718C33.0957 702 37.5124 670.833 46.3457 624.5C49.5124 607.833 51.0957 598.5 51.0957 596.5C51.0957 583 47.679 576.25 40.8457 576.25C38.5124 576.25 36.3457 576.917 34.3457 578.25C32.5124 579.583 30.5957 581 28.5957 582.5C26.7624 584 24.8457 585.417 22.8457 586.75C20.8457 588.083 18.5124 588.75 15.8457 588.75C13.3457 588.75 12.0957 586.5 12.0957 582C12.0957 572.833 16.3457 565.333 24.8457 559.5C33.0124 553.5 42.929 550.5 54.5957 550.5C69.5957 550.5 78.429 557.5 81.0957 571.5C81.7624 575.667 82.2624 580.083 82.5957 584.75C94.929 561.583 110.512 550 129.346 550C149.846 550 161.596 559.833 164.596 579.5C165.596 585.167 166.012 591.25 165.846 597.75V599.75C176.679 584.75 189.512 577.25 204.346 577.25C225.346 577.25 235.846 589.917 235.846 615.25C235.846 626.25 234.096 639.167 230.596 654C227.262 668.667 224.762 679.25 223.096 685.75C221.596 692.083 220.846 697 220.846 700.5C220.846 706.833 223.012 710 227.346 710C231.846 710 242.429 701.333 259.096 684C262.096 680.667 264.262 679 265.596 679ZM293.889 696L295.389 726.5C295.389 730.5 293.305 734.083 289.139 737.25C284.972 740.417 279.305 742 272.139 742C267.972 742 265.055 739.833 263.389 735.5C261.889 731.167 261.139 724.833 261.139 716.5C261.139 699 261.972 685.333 263.639 675.5C265.472 665.5 268.972 655.417 274.139 645.25C266.472 637.917 262.639 631.583 262.639 626.25C262.639 615.083 268.639 609.5 280.639 609.5C286.805 609.5 292.222 612.75 296.889 619.25C300.222 623.75 302.639 629 304.139 635C306.472 635.833 309.389 636.25 312.889 636.25C317.722 636.25 323.305 634.667 329.639 631.5L336.139 628.25C338.139 627.25 339.889 626.75 341.389 626.75C346.222 626.75 351.055 633.833 355.889 648C354.389 654.5 352.722 660.75 350.889 666.75C349.222 672.75 347.222 680 344.889 688.5C342.555 697 341.305 702.75 341.139 705.75C341.139 708.583 342.055 710 343.889 710C346.389 710 349.472 708.417 353.139 705.25C356.805 702.083 360.472 698.667 364.139 695C367.805 691.167 371.139 687.667 374.139 684.5C377.305 681.333 379.472 679.75 380.639 679.75C382.972 679.75 384.139 682.583 384.139 688.25C384.139 699.75 379.055 711.083 368.889 722.25C358.889 733.417 347.389 738.917 334.389 738.75C326.722 738.75 320.972 735.667 317.139 729.5C313.305 723.333 311.305 715.833 311.139 707C311.139 689.5 315.055 672.917 322.889 657.25C319.222 658.75 315.055 659.5 310.389 659.5C305.889 659.5 302.639 659.333 300.639 659C299.139 665.333 297.639 671.75 296.139 678.25C294.639 684.583 293.889 690.5 293.889 696ZM509.912 685.25C509.912 699.75 516.079 707 528.412 707C541.912 707 550.995 702.333 555.662 693C557.329 689.667 558.162 685.417 558.162 680.25C558.162 674.917 556.912 670 554.412 665.5C550.245 658.333 543.079 650.417 532.912 641.75C516.079 627.417 507.662 612.583 507.662 597.25C507.662 581.75 512.495 569.833 522.162 561.5C531.829 553.167 542.912 549 555.412 549C567.912 549 577.829 552.167 585.162 558.5C592.495 564.833 596.162 574.333 596.162 587C596.162 595.333 593.329 602.583 587.662 608.75C582.162 614.917 574.829 618.75 565.662 620.25C569.829 623.75 573.995 627.333 578.162 631C582.162 634.667 585.829 638.667 589.162 643C596.495 652.833 600.162 664.583 600.162 678.25C600.162 687.75 597.912 696.333 593.412 704C589.079 711.667 583.329 718.167 576.162 723.5C569.162 728.667 561.245 732.667 552.412 735.5C543.579 738.333 535.329 739.75 527.662 739.75C511.329 739.75 498.662 736 489.662 728.5C479.162 720 473.912 707.75 473.912 691.75C473.912 681.25 477.329 671.083 484.162 661.25C490.995 651.417 498.245 646.5 505.912 646.5C511.912 646.5 514.912 648.333 514.912 652C514.912 657.333 514.079 662.667 512.412 668C510.745 673.167 509.912 678.917 509.912 685.25ZM558.412 614.25C567.912 604.75 572.662 594.833 572.662 584.5C572.662 581.333 570.995 578.667 567.662 576.5C563.995 574.5 560.162 573.5 556.162 573.5C547.162 573.5 540.662 576.417 536.662 582.25C538.662 589.417 541.579 595.5 545.412 600.5C549.412 605.5 553.745 610.083 558.412 614.25ZM650.99 613.25C656.99 613.25 662.657 619 667.99 630.5C675.824 622.333 685.49 618.25 696.99 618.25C708.657 618.25 717.407 620.833 723.24 626C729.074 631 731.99 638.167 731.99 647.5C731.99 656.667 730.74 666 728.24 675.5C725.907 685 724.157 691.833 722.99 696C721.99 700 721.49 703.333 721.49 706C721.49 708.667 722.407 710 724.24 710C726.74 710 729.824 708.417 733.49 705.25C737.157 702.083 740.824 698.667 744.49 695C748.157 691.167 751.49 687.667 754.49 684.5C757.657 681.333 759.824 679.75 760.99 679.75C763.324 679.75 764.49 682.583 764.49 688.25C764.49 699.917 758.74 711.167 747.24 722C727.907 733.333 715.574 739 710.24 739C709.74 739 709.407 738.917 709.24 738.75C695.907 738.75 689.24 728.083 689.24 706.75C689.24 697.583 690.074 689.167 691.74 681.5C693.574 673.833 694.907 668.25 695.74 664.75C696.574 661.25 696.99 657.667 696.99 654C696.99 648 693.49 645 686.49 645C679.657 645 673.074 650.167 666.74 660.5C660.574 670.667 656.407 681.25 654.24 692.25V694C654.24 699.667 655.074 705.5 656.74 711.5C658.574 717.5 659.49 721.667 659.49 724C659.49 729.667 652.407 735.25 638.24 740.75C636.074 741.583 634.157 742 632.49 742C628.324 742 625.407 739.833 623.74 735.5C622.24 731.167 621.49 724.417 621.49 715.25C621.49 691.583 622.407 674.5 624.24 664C626.74 648.333 632.407 633.75 641.24 620.25C644.24 615.583 647.49 613.25 650.99 613.25ZM853.018 716.75C839.851 732.25 824.018 740 805.518 740C787.184 740 773.434 735.333 764.268 726C755.101 716.5 750.601 704.75 750.768 690.75C750.601 670.917 756.851 653.833 769.518 639.5C782.184 625.167 798.768 618 819.268 618C828.601 618 836.101 619.167 841.768 621.5C851.601 625.5 856.518 629.25 856.518 632.75C856.518 635.417 849.601 636.833 835.768 637C822.101 637 810.601 641.75 801.268 651.25C792.101 660.583 787.518 672.417 787.518 686.75C787.518 694.25 789.684 700.583 794.018 705.75C798.518 710.75 804.768 713.25 812.768 713.25C820.934 713.25 827.684 711.583 833.018 708.25C821.184 700.25 815.268 688.667 815.268 673.5C815.101 665.5 817.934 658.25 823.768 651.75C829.768 645.083 837.351 641.75 846.518 641.75C855.851 641.583 862.518 644.083 866.518 649.25C870.518 654.417 872.518 661.083 872.518 669.25C872.518 677.25 870.601 685.75 866.768 694.75H868.268C875.601 694.583 881.934 692 887.268 687C889.268 685 890.934 683.25 892.268 681.75C893.768 680.25 895.268 679.5 896.768 679.5C899.101 679.5 900.268 682.25 900.268 687.75C900.268 697.917 897.268 705.583 891.268 710.75C885.268 715.75 878.601 718.25 871.268 718.25C864.101 718.25 858.018 717.75 853.018 716.75ZM850.768 687.75C853.601 681.75 855.018 675.917 855.018 670.25C855.018 664.583 853.184 661.75 849.518 661.75C848.018 661.75 846.768 662.833 845.768 665C844.768 667.167 844.268 669.25 844.268 671.25C844.268 677.917 846.434 683.417 850.768 687.75ZM927.26 628C927.26 639.167 925.26 651.833 921.26 666C921.593 671.333 921.76 676.5 921.76 681.5C922.093 692.167 923.426 699.5 925.76 703.5C927.426 705.667 929.593 706.75 932.26 706.75C937.426 706.75 943.843 703.083 951.51 695.75C945.676 681.917 942.76 669.417 942.76 658.25C942.76 635.417 953.51 624 975.01 624C982.343 624 988.426 626.167 993.26 630.5C998.26 634.667 1000.76 639.917 1000.76 646.25C1000.76 659.583 993.343 675.583 978.51 694.25C984.676 701.583 989.676 705.833 993.51 707C999.01 707 1007.26 696.833 1018.26 676.5C1016.26 669 1015.26 662 1015.26 655.5C1015.26 643.667 1017.09 635 1020.76 629.5C1025.26 622.5 1032.68 619 1043.01 619C1053.51 619 1059.43 623.25 1060.76 631.75C1061.09 634.25 1061.26 636.917 1061.26 639.75C1061.26 650.417 1055.34 665.167 1043.51 684C1047.68 690 1051.59 693.583 1055.26 694.75C1062.93 694.75 1069.43 692.167 1074.76 687C1076.76 685.167 1078.43 683.5 1079.76 682C1081.26 680.333 1082.76 679.5 1084.26 679.5C1086.59 679.5 1087.76 682.25 1087.76 687.75C1087.76 697.917 1084.76 705.417 1078.76 710.25C1072.76 715.083 1064.93 717.5 1055.26 717.5C1045.59 717.5 1037.18 712.833 1030.01 703.5C1021.34 714.833 1014.18 722.75 1008.51 727.25C998.176 735.75 990.093 740 984.26 740C981.426 740 977.76 737.667 973.26 733C968.926 728.167 964.593 721.917 960.26 714.25C952.26 721.75 944.343 727.917 936.51 732.75C928.676 737.583 922.093 740 916.76 740C907.093 740 898.926 719 892.26 677C889.926 662.667 888.76 652.833 888.76 647.5C889.093 636.5 890.593 628.833 893.26 624.5C896.926 619.167 904.093 616.5 914.76 616.5C918.76 616.5 921.843 617.75 924.01 620.25C926.176 622.583 927.26 625.167 927.26 628ZM970.01 673C975.51 664.5 978.26 657.75 978.26 652.75C978.26 647.583 976.51 645 973.01 645C970.676 645 969.176 646.333 968.51 649C968.01 651.5 967.76 654.833 967.76 659C967.76 663.167 968.51 667.833 970.01 673ZM1213.48 662C1213.48 656.5 1210.31 653.75 1203.98 653.75C1199.65 653.75 1194.81 658 1189.48 666.5C1184.15 674.833 1180.31 683.833 1177.98 693.5V694C1177.98 699.667 1178.81 705.5 1180.48 711.5C1182.31 717.5 1183.23 721.667 1183.23 724C1183.23 729.667 1176.15 735.25 1161.98 740.75C1159.81 741.583 1157.9 742 1156.23 742C1152.06 742 1149.15 739.833 1147.48 735.5C1145.98 731.167 1145.23 725.333 1145.23 718C1145.23 710.5 1145.4 703.5 1145.73 697C1146.23 690.333 1146.65 684.25 1146.98 678.75C1147.48 673.083 1147.9 668.167 1148.23 664C1148.73 659.667 1148.98 656.167 1148.98 653.5C1148.98 647.833 1146.4 645 1141.23 645C1136.06 645 1130.06 651.083 1123.23 663.25C1116.4 675.25 1112.98 684.833 1112.98 692C1112.98 699 1113.81 705.5 1115.48 711.5C1117.31 717.5 1118.23 721.667 1118.23 724C1118.23 729.667 1111.15 735.25 1096.98 740.75C1094.81 741.583 1092.9 742 1091.23 742C1087.06 742 1084.15 739.833 1082.48 735.5C1080.98 731.167 1080.23 724.5 1080.23 715.5C1080.23 691.833 1081.15 674.75 1082.98 664.25C1085.48 648.75 1091.15 634.083 1099.98 620.25C1102.98 615.583 1106.23 613.25 1109.73 613.25C1115.23 613.25 1120.31 617.75 1124.98 626.75C1126.31 629.083 1127.31 631.25 1127.98 633.25C1135.98 623.25 1145.4 618.25 1156.23 618.25C1163.4 618.25 1169.81 620.667 1175.48 625.5C1181.15 630.167 1183.98 636.083 1183.98 643.25V646C1194.15 633.333 1206.56 627 1221.23 627C1230.23 627 1237.06 629.333 1241.73 634C1246.4 638.667 1248.73 644.417 1248.73 651.25C1248.73 658.083 1248.23 664.25 1247.23 669.75C1246.23 675.25 1245.06 680.417 1243.73 685.25C1242.56 690.083 1241.48 694.417 1240.48 698.25C1239.48 701.917 1238.98 704.833 1238.98 707C1238.98 709 1239.65 710 1240.98 710C1243.48 710 1246.56 708.417 1250.23 705.25C1253.9 702.083 1257.56 698.667 1261.23 695C1264.9 691.167 1268.23 687.667 1271.23 684.5C1274.4 681.333 1276.56 679.75 1277.73 679.75C1280.06 679.75 1281.23 682.583 1281.23 688.25C1281.23 699.917 1275.31 711.25 1263.48 722.25C1251.81 733.25 1239.31 738.75 1225.98 738.75C1213.98 738.75 1207.98 727.833 1207.98 706C1207.98 700.5 1208.9 692.917 1210.73 683.25C1212.56 673.583 1213.48 666.5 1213.48 662ZM1422.12 679C1425.12 679 1426.62 682.833 1426.62 690.5C1426.62 694.667 1424.87 699.75 1421.37 705.75C1417.87 711.583 1413.29 717 1407.62 722C1402.12 726.833 1395.95 730.833 1389.12 734C1382.29 737.167 1375.62 738.75 1369.12 738.75C1360.29 738.75 1354.37 731 1351.37 715.5C1347.04 722.667 1341.37 728.583 1334.37 733.25C1327.37 737.75 1317.95 740 1306.12 740C1294.45 740 1285.04 736.333 1277.87 729C1270.7 721.667 1267.2 712.75 1267.37 702.25C1267.37 673.917 1276.79 651.583 1295.62 635.25C1303.62 628.417 1311.04 623.917 1317.87 621.75C1324.87 619.583 1332.2 618.5 1339.87 618.5C1347.54 618.5 1353.79 619.833 1358.62 622.5C1360.95 617.667 1363.62 615.25 1366.62 615.25C1372.45 615.25 1377.95 617.833 1383.12 623C1388.45 628 1391.12 632.75 1391.12 637.25C1388.79 642.75 1385.37 649.333 1380.87 657C1379.54 664.667 1378.87 675.417 1378.87 689.25C1378.87 703.083 1380.62 710 1384.12 710C1388.45 710 1398.95 701.333 1415.62 684C1418.62 680.667 1420.79 679 1422.12 679ZM1304.12 694C1304.12 706.833 1308.87 713.25 1318.37 713.25C1328.54 713.083 1336.95 707.667 1343.62 697C1345.95 693.333 1347.87 688.833 1349.37 683.5C1349.37 664.833 1351.04 648.833 1354.37 635.5C1340.87 638.167 1329.12 644.667 1319.12 655C1309.12 665.333 1304.12 678.333 1304.12 694ZM1447.38 613.25C1453.38 613.25 1459.04 619 1464.38 630.5C1472.21 622.333 1481.88 618.25 1493.38 618.25C1505.04 618.25 1513.79 620.833 1519.63 626C1525.46 631 1528.38 638.167 1528.38 647.5C1528.38 656.667 1527.13 666 1524.63 675.5C1522.29 685 1520.54 691.833 1519.38 696C1518.38 700 1517.88 703.333 1517.88 706C1517.88 708.667 1518.79 710 1520.63 710C1523.13 710 1526.21 708.417 1529.88 705.25C1533.54 702.083 1537.21 698.667 1540.88 695C1544.54 691.167 1547.88 687.667 1550.88 684.5C1554.04 681.333 1556.21 679.75 1557.38 679.75C1559.71 679.75 1560.88 682.583 1560.88 688.25C1560.88 699.917 1555.13 711.167 1543.63 722C1524.29 733.333 1511.96 739 1506.63 739C1506.13 739 1505.79 738.917 1505.63 738.75C1492.29 738.75 1485.63 728.083 1485.63 706.75C1485.63 697.583 1486.46 689.167 1488.13 681.5C1489.96 673.833 1491.29 668.25 1492.13 664.75C1492.96 661.25 1493.38 657.667 1493.38 654C1493.38 648 1489.88 645 1482.88 645C1476.04 645 1469.46 650.167 1463.13 660.5C1456.96 670.667 1452.79 681.25 1450.63 692.25V694C1450.63 699.667 1451.46 705.5 1453.13 711.5C1454.96 717.5 1455.88 721.667 1455.88 724C1455.88 729.667 1448.79 735.25 1434.63 740.75C1432.46 741.583 1430.54 742 1428.88 742C1424.71 742 1421.79 739.833 1420.13 735.5C1418.63 731.167 1417.88 724.417 1417.88 715.25C1417.88 691.583 1418.79 674.5 1420.63 664C1423.13 648.333 1428.79 633.75 1437.63 620.25C1440.63 615.583 1443.88 613.25 1447.38 613.25Z" fill="white"/>
<path d="M391.646 728.5C394.98 720 399.98 713 406.646 707.5C413.313 701.833 420.563 699 428.396 699C436.23 699 440.146 703.333 440.146 712C440.146 720.667 437.313 728.417 431.646 735.25C426.146 742.083 420.563 745.417 414.896 745.25C404.896 745.25 397.146 739.667 391.646 728.5Z" fill="#E5A0BD"/>
<path d="M592 272H593.207C598.215 296.496 623.609 373.871 744 383.039V432H696C678.328 432 664 446.328 664 464V472C664 476.418 667.582 480 672 480H864C868.418 480 872 476.418 872 472V464C872 446.328 857.672 432 840 432H792V383.039C912.375 373.871 937.785 296.496 942.793 272H944C952.836 272 960 264.836 960 256V240C960 231.164 952.836 224 944 224H942.609C950.57 177.887 923.945 132.797 879.719 117.496C879.809 115.664 880 113.848 880 112C880 50.1445 829.855 0 768 0C706.145 0 656 50.1445 656 112C656 113.824 656.199 115.656 656.297 117.496C612.062 132.785 585.43 177.879 593.391 224H592C583.164 224 576 231.164 576 240V256C576 264.836 583.164 272 592 272V272ZM840 448C848.836 448 856 455.164 856 464H680C680 455.164 687.164 448 696 448H752C756.418 448 760 444.418 760 440V383.816C762.664 383.879 765.258 384 768 384C770.742 384 773.336 383.879 776 383.816V440C776 444.418 779.582 448 784 448H840ZM768 368C641.809 368 614.938 297.16 609.375 272H926.625C921.062 297.16 894.191 368 768 368ZM928 208C928.004 213.375 927.465 218.734 926.398 224H769.602C763.531 194.121 774.977 163.391 799.109 144.758C823.242 126.125 855.867 122.828 883.238 136.262C910.609 149.691 927.969 177.512 928 208ZM768 16C820.996 16.0586 863.941 59.0039 864 112C864 112.48 863.937 112.953 863.93 113.434C858.668 112.512 853.34 112.031 848 112C847.953 67.8359 812.164 32.0469 768 32C763.582 32 760 35.582 760 40C760 44.418 763.582 48 768 48C803.328 48.0391 831.961 76.6719 832 112C832.047 112.473 832.141 112.941 832.281 113.398C806.016 117.766 782.738 132.832 768 155.008C747.215 123.199 709.473 106.836 672.047 113.406C672.047 112.938 671.977 112.457 671.977 111.977C672.047 58.9805 715.004 16.043 768 16ZM688 128C718.047 128.102 745.512 144.996 759.152 171.77C752.332 188.285 750.336 206.395 753.391 224H609.602C604.824 200.465 610.863 176.023 626.055 157.422C641.246 138.82 663.984 128.023 688 128ZM592 240H944V256H592V240Z" fill="white"/>
<path d="M639.113 300.576C644.688 308.525 651.402 315.607 659.039 321.603C662.508 324.342 667.539 323.752 670.281 320.283C673.02 316.814 672.43 311.783 668.961 309.041C662.551 304.025 656.914 298.096 652.231 291.443C649.668 287.924 644.762 287.1 641.188 289.592C637.617 292.08 636.695 296.971 639.113 300.596V300.576Z" fill="white"/>
<path d="M693.223 340.366C717.278 348.593 742.586 352.53 768 351.999C844.895 351.999 880.559 324.038 896.946 300.573C899.363 296.952 898.438 292.062 894.867 289.573C891.297 287.081 886.387 287.901 883.824 291.425C869.602 311.761 838.008 335.999 768 335.999C744.481 336.526 721.051 332.929 698.778 325.358C694.633 323.827 690.028 325.944 688.496 330.089C686.961 334.23 689.078 338.835 693.223 340.366V340.366Z" fill="white"/>
<path d="M840 152C840 156.418 843.582 160 848 160C871.824 160.086 892.012 177.566 895.504 201.137C896.133 205.512 900.188 208.551 904.562 207.926C908.941 207.297 911.98 203.242 911.352 198.863C906.688 167.438 879.77 144.125 848 144C843.582 144 840 147.582 840 152Z" fill="white"/>
<path d="M688.566 160C712.395 160.09 732.582 177.57 736.078 201.137C736.645 205.074 740.02 208 744 208C744.387 208 744.77 207.973 745.152 207.922C749.523 207.289 752.555 203.234 751.93 198.863C747.262 167.434 720.344 144.121 688.566 144C684.148 144 680.566 147.582 680.566 152C680.566 156.418 684.148 160 688.566 160Z" fill="white"/>
<path d="M936 360C936 355.582 932.418 352 928 352C923.582 352 920 355.582 920 360C920 377.672 905.672 392 888 392C883.582 392 880 395.582 880 400C880 404.418 883.582 408 888 408C905.672 408 920 422.328 920 440C920 444.418 923.582 448 928 448C932.418 448 936 444.418 936 440C936 422.328 950.328 408 968 408C972.418 408 976 404.418 976 400C976 395.582 972.418 392 968 392C950.328 392 936 377.672 936 360ZM928 413.52C924.438 408.16 919.84 403.562 914.48 400C919.84 396.438 924.438 391.84 928 386.48C931.562 391.84 936.16 396.438 941.52 400C936.16 403.562 931.562 408.16 928 413.52Z" fill="#E5A0BD"/>
</svg>
